<svg width="285" height="59" viewBox="0 0 285 59" fill="none" xmlns="http://www.w3.org/2000/svg">
<path d="M17.776 46.896C14.32 46.896 11.2693 46.2773 8.624 45.04C5.97867 43.8027 3.90933 42.032 2.416 39.728C0.922667 37.424 0.176 34.6507 0.176 31.408V29.616H8.496V31.408C8.496 34.096 9.328 36.1227 10.992 37.488C12.656 38.8107 14.9173 39.472 17.776 39.472C20.6773 39.472 22.832 38.896 24.24 37.744C25.6907 36.592 26.416 35.12 26.416 33.328C26.416 32.0907 26.0533 31.088 25.328 30.32C24.6453 29.552 23.6213 28.9333 22.256 28.464C20.9333 27.952 19.312 27.4827 17.392 27.056L15.92 26.736C12.848 26.0533 10.2027 25.2 7.984 24.176C5.808 23.1093 4.12267 21.7227 2.928 20.016C1.776 18.3093 1.2 16.0907 1.2 13.36C1.2 10.6293 1.84 8.304 3.12 6.384C4.44267 4.42133 6.27733 2.928 8.624 1.904C11.0133 0.837331 13.808 0.303997 17.008 0.303997C20.208 0.303997 23.0453 0.858664 25.52 1.968C28.0373 3.03466 30 4.656 31.408 6.832C32.8587 8.96533 33.584 11.6533 33.584 14.896V16.816H25.264V14.896C25.264 13.1893 24.9227 11.824 24.24 10.8C23.6 9.73333 22.6613 8.96533 21.424 8.496C20.1867 7.984 18.7147 7.728 17.008 7.728C14.448 7.728 12.5493 8.21866 11.312 9.2C10.1173 10.1387 9.52 11.44 9.52 13.104C9.52 14.2133 9.79733 15.152 10.352 15.92C10.9493 16.688 11.824 17.328 12.976 17.84C14.128 18.352 15.6 18.8 17.392 19.184L18.864 19.504C22.064 20.1867 24.8373 21.0613 27.184 22.128C29.5733 23.1947 31.4293 24.6027 32.752 26.352C34.0747 28.1013 34.736 30.3413 34.736 33.072C34.736 35.8027 34.032 38.2133 32.624 40.304C31.2587 42.352 29.296 43.9733 26.736 45.168C24.2187 46.32 21.232 46.896 17.776 46.896ZM44.7485 58.8V51.76H62.0285C63.2232 51.76 63.8205 51.12 63.8205 49.84V41.84H62.6685C62.3272 42.5653 61.7938 43.2907 61.0685 44.016C60.3432 44.7413 59.3618 45.3387 58.1245 45.808C56.8872 46.2773 55.3085 46.512 53.3885 46.512C50.9138 46.512 48.7378 45.9573 46.8605 44.848C45.0258 43.696 43.5965 42.1173 42.5725 40.112C41.5485 38.1067 41.0365 35.8027 41.0365 33.2V14.256H49.1005V32.56C49.1005 34.9493 49.6765 36.7413 50.8285 37.936C52.0232 39.1307 53.7085 39.728 55.8845 39.728C58.3592 39.728 60.2792 38.9173 61.6445 37.296C63.0098 35.632 63.6925 33.328 63.6925 30.384V14.256H71.7565V51.632C71.7565 53.808 71.1165 55.536 69.8365 56.816C68.5565 58.1387 66.8498 58.8 64.7165 58.8H44.7485ZM80.73 46V14.256H88.666V18.416H89.818C90.33 17.3067 91.29 16.2613 92.698 15.28C94.106 14.256 96.2393 13.744 99.098 13.744C101.573 13.744 103.727 14.32 105.562 15.472C107.439 16.5813 108.89 18.1387 109.914 20.144C110.938 22.1067 111.45 24.4107 111.45 27.056V46H103.386V27.696C103.386 25.3067 102.789 23.5147 101.594 22.32C100.442 21.1253 98.778 20.528 96.602 20.528C94.1273 20.528 92.2073 21.36 90.842 23.024C89.4767 24.6453 88.794 26.928 88.794 29.872V46H80.73ZM135.08 46.896C132.008 46.896 129.213 46.256 126.696 44.976C124.221 43.696 122.258 41.84 120.808 39.408C119.357 36.976 118.632 34.032 118.632 30.576V29.68C118.632 26.224 119.357 23.28 120.808 20.848C122.258 18.416 124.221 16.56 126.696 15.28C129.213 14 132.008 13.36 135.08 13.36C138.109 13.36 140.712 13.8933 142.888 14.96C145.064 16.0267 146.813 17.4987 148.136 19.376C149.501 21.2107 150.397 23.3013 150.824 25.648L143.016 27.312C142.845 26.032 142.461 24.88 141.864 23.856C141.266 22.832 140.413 22.0213 139.304 21.424C138.237 20.8267 136.893 20.528 135.272 20.528C133.65 20.528 132.178 20.8907 130.856 21.616C129.576 22.2987 128.552 23.344 127.784 24.752C127.058 26.1173 126.696 27.8027 126.696 29.808V30.448C126.696 32.4533 127.058 34.16 127.784 35.568C128.552 36.9333 129.576 37.9787 130.856 38.704C132.178 39.3867 133.65 39.728 135.272 39.728C137.704 39.728 139.538 39.1093 140.776 37.872C142.056 36.592 142.866 34.928 143.208 32.88L151.016 34.736C150.461 36.9973 149.501 39.0667 148.136 40.944C146.813 42.7787 145.064 44.2293 142.888 45.296C140.712 46.3627 138.109 46.896 135.08 46.896Z" fill="white"/>
<path d="M176.74 46.896C173.881 46.896 171.684 46.4053 170.148 45.424C168.612 44.4427 167.481 43.3547 166.756 42.16H165.604V46H157.668V1.2H165.732V17.904H166.884C167.353 17.136 167.972 16.4107 168.74 15.728C169.55 15.0453 170.596 14.4907 171.876 14.064C173.198 13.5947 174.82 13.36 176.74 13.36C179.3 13.36 181.668 14 183.844 15.28C186.02 16.5173 187.769 18.352 189.092 20.784C190.414 23.216 191.076 26.16 191.076 29.616V30.64C191.076 34.096 190.414 37.04 189.092 39.472C187.769 41.904 186.02 43.76 183.844 45.04C181.668 46.2773 179.3 46.896 176.74 46.896ZM174.308 39.856C176.782 39.856 178.852 39.0667 180.516 37.488C182.18 35.8667 183.012 33.52 183.012 30.448V29.808C183.012 26.736 182.18 24.4107 180.516 22.832C178.894 21.2107 176.825 20.4 174.308 20.4C171.833 20.4 169.764 21.2107 168.1 22.832C166.436 24.4107 165.604 26.736 165.604 29.808V30.448C165.604 33.52 166.436 35.8667 168.1 37.488C169.764 39.0667 171.833 39.856 174.308 39.856ZM213.584 46.896C210.427 46.896 207.589 46.256 205.072 44.976C202.555 43.696 200.571 41.84 199.12 39.408C197.669 36.976 196.944 34.0533 196.944 30.64V29.616C196.944 26.2027 197.669 23.28 199.12 20.848C200.571 18.416 202.555 16.56 205.072 15.28C207.589 14 210.427 13.36 213.584 13.36C216.741 13.36 219.579 14 222.096 15.28C224.613 16.56 226.597 18.416 228.048 20.848C229.499 23.28 230.224 26.2027 230.224 29.616V30.64C230.224 34.0533 229.499 36.976 228.048 39.408C226.597 41.84 224.613 43.696 222.096 44.976C219.579 46.256 216.741 46.896 213.584 46.896ZM213.584 39.728C216.059 39.728 218.107 38.9387 219.728 37.36C221.349 35.7387 222.16 33.4347 222.16 30.448V29.808C222.16 26.8213 221.349 24.5387 219.728 22.96C218.149 21.3387 216.101 20.528 213.584 20.528C211.109 20.528 209.061 21.3387 207.44 22.96C205.819 24.5387 205.008 26.8213 205.008 29.808V30.448C205.008 33.4347 205.819 35.7387 207.44 37.36C209.061 38.9387 211.109 39.728 213.584 39.728ZM232.789 46L244.309 30L232.917 14.256H242.261L249.493 24.816H250.645L257.877 14.256H267.221L255.829 30L267.349 46H257.877L250.645 35.312H249.493L242.261 46H232.789ZM278.536 46.896C276.829 46.896 275.379 46.3413 274.184 45.232C273.032 44.08 272.456 42.608 272.456 40.816C272.456 39.024 273.032 37.5733 274.184 36.464C275.379 35.312 276.829 34.736 278.536 34.736C280.285 34.736 281.736 35.312 282.888 36.464C284.04 37.5733 284.616 39.024 284.616 40.816C284.616 42.608 284.04 44.08 282.888 45.232C281.736 46.3413 280.285 46.896 278.536 46.896Z" fill="#A7E92F"/>
</svg>
